<svg width="380" height="76" viewBox="0 0 380 76" fill="none" xmlns="http://www.w3.org/2000/svg">
<path d="M-0.00390625 48.3656L27.4262 76.002L37.7116 65.6431L10.2836 38.0016L-0.00390625 48.3656Z" fill="#34557C"/>
<path d="M27.4262 -0.000218359L-0.00390625 27.6389L10.2836 38.002L37.7116 10.3656L27.4262 -0.000218359Z" fill="#34557C"/>
<path d="M75.4264 27.6404V27.6385L47.9986 -0.000548269L37.7109 10.3653L65.1411 38.0016L37.7109 65.6431L47.9986 76.002L75.4264 48.3656C81.1079 42.6405 81.1079 33.3609 75.4264 27.6404Z" fill="#34557C"/>
<path d="M122.965 46.7826C120.881 48.9747 117.687 50.0678 113.374 50.0678C112.638 50.0678 112.003 50.0583 111.471 50.0419C110.934 50.023 110.465 49.9935 110.061 49.9575V25.5662C110.613 25.4942 111.201 25.4486 111.829 25.4291C112.453 25.4127 113.062 25.4004 113.653 25.4004C117.963 25.4004 121.113 26.4419 123.1 28.5183C125.09 30.6001 126.085 33.6629 126.085 37.7044C126.085 41.5678 125.044 44.5924 122.965 46.7826ZM129.015 22.6183C127.099 21.0212 124.804 19.8503 122.134 19.1098C119.465 18.3681 116.488 17.9944 113.21 17.9944C111.663 17.9944 109.81 18.0591 107.656 18.1885C105.503 18.3225 103.429 18.5726 101.441 18.9417V56.5269C103.429 56.9347 105.453 57.2028 107.518 57.3348C109.58 57.4647 111.387 57.5293 112.934 57.5293C116.324 57.5293 119.382 57.1201 122.107 56.304C124.833 55.4862 127.144 54.2651 129.044 52.6316C130.938 50.996 132.404 48.9364 133.435 46.449C134.469 43.9641 134.983 41.0475 134.983 37.7044C134.983 34.2197 134.469 31.2289 133.435 28.7442C132.404 26.2569 130.929 24.2153 129.015 22.6183Z" fill="#6DC9EB"/>
<path d="M146.75 39.4334C146.86 38.7304 147.033 38.0328 147.274 37.3496C147.514 36.6589 147.854 36.0562 148.298 35.5382C148.737 35.0178 149.29 34.6008 149.954 34.2868C150.618 33.9698 151.41 33.8098 152.332 33.8098C153.287 33.8098 154.091 33.9794 154.734 34.311C155.379 34.646 155.915 35.076 156.338 35.5918C156.762 36.114 157.074 36.7068 157.276 37.3734C157.478 38.0425 157.597 38.7304 157.638 39.4334H146.75ZM152.22 26.962C150.451 26.962 148.728 27.2982 147.055 27.9644C145.376 28.6311 143.894 29.6144 142.606 30.9143C141.314 32.2169 140.274 33.8408 139.483 35.7905C138.69 37.7382 138.293 40.0115 138.293 42.6091C138.293 44.7629 138.597 46.7678 139.207 48.6244C139.815 50.4781 140.754 52.0874 142.025 53.4374C143.297 54.7957 144.898 55.8604 146.833 56.6393C148.766 57.4193 151.04 57.8105 153.657 57.8105C154.688 57.8105 155.719 57.7551 156.752 57.6448C157.783 57.5318 158.752 57.3955 159.654 57.2224C160.553 57.057 161.374 56.8651 162.112 56.6393C162.848 56.4196 163.439 56.1959 163.881 55.9726L162.774 49.2332C161.853 49.6438 160.665 49.9887 159.211 50.2675C157.755 50.5431 156.271 50.6822 154.762 50.6822C152.403 50.6822 150.525 50.1786 149.125 49.1782C147.724 48.178 146.933 46.8233 146.75 45.1148H165.425C165.464 44.6668 165.502 44.161 165.54 43.5805C165.574 43.0096 165.592 42.4797 165.592 41.9976C165.592 37.059 164.398 33.32 162.003 30.7776C159.606 28.2332 156.345 26.962 152.22 26.962Z" fill="#6DC9EB"/>
<path d="M178.3 49.2302C177.986 48.8229 177.773 48.324 177.661 47.7263C177.552 47.1348 177.498 46.4654 177.498 45.7264V13.818L169.262 15.1543V47.3928C169.262 48.957 169.419 50.358 169.73 51.6004C170.044 52.8426 170.635 53.9025 171.501 54.7712C172.366 55.6462 173.546 56.3224 175.038 56.8044C176.528 57.2865 178.471 57.5476 180.868 57.584L182.032 50.737C181.035 50.6619 180.242 50.4943 179.651 50.2353C179.064 49.9762 178.611 49.6408 178.3 49.2302Z" fill="#6DC9EB"/>
<path d="M185.344 57.0293H193.577V27.7376H185.344V57.0293Z" fill="#6DC9EB"/>
<path d="M192.891 15.6835C191.915 14.8108 190.763 14.3736 189.435 14.3736C188.112 14.3736 186.957 14.8108 185.984 15.6835C185.008 16.5561 184.52 17.7507 184.52 19.2743C184.52 20.7963 185.008 21.9963 185.984 22.8666C186.957 23.74 188.112 24.1738 189.435 24.1738C190.763 24.1738 191.915 23.74 192.891 22.8666C193.865 21.9963 194.356 20.7963 194.356 19.2743C194.356 17.7507 193.865 16.5561 192.891 15.6835Z" fill="#6DC9EB"/>
<path d="M215.26 32.4434C214.762 34.1343 214.24 35.8393 213.705 37.5689C213.167 39.2908 212.625 40.9729 212.069 42.6054C211.515 44.2408 210.997 45.7257 210.518 47.0617C209.999 45.7257 209.474 44.2408 208.932 42.6054C208.397 40.9729 207.861 39.2908 207.326 37.5689C206.788 35.8393 206.272 34.1343 205.772 32.4434C205.272 30.7525 204.836 29.1846 204.467 27.7376H195.734C197.472 33.6066 199.312 39.025 201.254 43.9993C203.194 48.9735 205.11 53.3167 206.992 57.0293H213.826C215.712 53.3167 217.624 48.9735 219.563 43.9993C221.503 39.025 223.34 33.6066 225.078 27.7376H216.563C216.192 29.1846 215.759 30.7525 215.26 32.4434Z" fill="#6DC9EB"/>
<path d="M234.363 39.4334C234.475 38.7304 234.646 38.0328 234.887 37.3496C235.125 36.6589 235.468 36.0562 235.908 35.5382C236.351 35.0178 236.903 34.6008 237.567 34.2868C238.231 33.9698 239.024 33.8098 239.943 33.8098C240.899 33.8098 241.704 33.9794 242.347 34.311C242.992 34.646 243.525 35.076 243.949 35.5918C244.375 36.114 244.686 36.7068 244.889 37.3734C245.091 38.0425 245.211 38.7304 245.248 39.4334H234.363ZM239.833 26.962C238.065 26.962 236.344 27.2982 234.665 27.9644C232.99 28.6311 231.507 29.6144 230.217 30.9143C228.927 32.2169 227.886 33.8408 227.096 35.7905C226.301 37.7382 225.906 40.0115 225.906 42.6091C225.906 44.7629 226.211 46.7678 226.818 48.6244C227.427 50.4781 228.365 52.0874 229.636 53.4374C230.909 54.7957 232.512 55.8604 234.444 56.6393C236.38 57.4193 238.652 57.8105 241.268 57.8105C242.302 57.8105 243.334 57.7551 244.365 57.6448C245.396 57.5318 246.36 57.3955 247.267 57.2224C248.169 57.057 248.987 56.8651 249.725 56.6393C250.461 56.4196 251.052 56.1959 251.492 55.9726L250.387 49.2332C249.466 49.6438 248.278 49.9887 246.824 50.2675C245.368 50.5431 243.887 50.6822 242.375 50.6822C240.016 50.6822 238.139 50.1786 236.739 49.1782C235.34 48.178 234.545 46.8233 234.363 45.1148H253.039C253.075 44.6668 253.113 44.161 253.151 43.5805C253.187 43.0096 253.206 42.4797 253.206 41.9976C253.206 37.059 252.008 33.32 249.613 30.7776C247.217 28.2332 243.958 26.962 239.833 26.962Z" fill="#6DC9EB"/>
<path d="M272.664 27.4309C272.039 27.3424 271.413 27.2655 270.787 27.208C270.16 27.1552 269.627 27.1265 269.185 27.1265C266.714 27.1265 264.479 27.3589 262.47 27.8218C260.461 28.287 258.721 28.776 257.25 29.2968V57.0293H265.481V34.6424C265.847 34.5325 266.392 34.4268 267.112 34.338C267.833 34.2423 268.447 34.2013 268.964 34.2013C270.106 34.2013 271.175 34.2997 272.17 34.5057C273.165 34.7075 274.028 34.9016 274.767 35.0865L276.147 28.2415C275.707 28.0516 275.169 27.8957 274.543 27.7644C273.919 27.6373 273.293 27.5266 272.664 27.4309Z" fill="#6DC9EB"/>
<path d="M297.803 35.4775C296.294 36.2931 294.047 36.7031 291.062 36.7031H288.355V25.565C288.798 25.5313 289.321 25.493 289.931 25.4548C290.538 25.4184 291.154 25.3992 291.781 25.3992C293.035 25.3992 294.175 25.4835 295.208 25.6493C296.238 25.8147 297.114 26.1137 297.834 26.541C298.55 26.9657 299.102 27.5339 299.49 28.2415C299.878 28.9441 300.071 29.8363 300.071 30.9107C300.071 33.1414 299.314 34.6596 297.803 35.4775ZM304.382 21.0296C301.323 19.0029 296.939 17.9932 291.228 17.9932C289.648 17.9932 287.803 18.0702 285.704 18.2165C283.602 18.3669 281.614 18.6262 279.734 18.9953V57.0293H288.355V44.1092H291.062C296.81 44.1092 301.232 43.0806 304.325 41.0207C307.421 38.9576 308.966 35.6069 308.966 30.9685C308.966 26.3634 307.438 23.0513 304.382 21.0296Z" fill="#6DC9EB"/>
<path d="M322.055 49.2302C321.743 48.8229 321.531 48.324 321.42 47.7263C321.311 47.1348 321.255 46.4654 321.255 45.7264V13.818L313.02 15.1543V47.3928C313.02 48.957 313.176 50.358 313.491 51.6004C313.802 52.8426 314.393 53.9025 315.259 54.7712C316.123 55.6462 317.304 56.3224 318.796 56.8044C320.287 57.2865 322.231 57.5476 324.628 57.584L325.785 50.737C324.792 50.6619 323.998 50.4943 323.409 50.2353C322.819 49.9762 322.372 49.6408 322.055 49.2302Z" fill="#6DC9EB"/>
<path d="M345.676 50.3479C345.16 50.4225 344.573 50.485 343.909 50.5401C343.244 50.598 342.618 50.6235 342.031 50.6235C340.114 50.6235 338.807 50.0317 338.108 48.8416C337.405 47.6546 337.055 45.7263 337.055 43.0522V27.7382H328.824V44.0524C328.824 46.0594 329.024 47.8946 329.429 49.5661C329.836 51.2378 330.514 52.6747 331.476 53.8813C332.432 55.087 333.733 56.0251 335.371 56.6937C337.01 57.3607 339.064 57.6992 341.533 57.6992C343.963 57.6992 346.286 57.5196 348.498 57.1669C350.703 56.8142 352.51 56.4329 353.913 56.0251V27.7382H345.676V50.3479Z" fill="#6DC9EB"/>
<path d="M379.587 45.8113C379.31 44.8831 378.832 44.0407 378.151 43.2803C377.47 42.5226 376.54 41.8177 375.359 41.1602C374.181 40.5058 372.688 39.8416 370.884 39.1673C369.998 38.8315 369.272 38.524 368.699 38.2418C368.128 37.9588 367.678 37.6996 367.347 37.4595C367.016 37.2198 366.794 36.9683 366.685 36.7068C366.573 36.4475 366.519 36.1504 366.519 35.8142C366.519 34.3684 367.809 33.644 370.386 33.644C371.784 33.644 373.047 33.7734 374.172 34.0353C375.294 34.2937 376.335 34.5913 377.294 34.9271L378.731 28.4637C377.772 28.0939 376.482 27.7512 374.862 27.4345C373.241 27.1202 371.546 26.962 369.779 26.962C366.242 26.962 363.46 27.7607 361.434 29.3578C359.407 30.9556 358.395 33.1259 358.395 35.8717C358.395 37.2849 358.597 38.4892 359.001 39.4911C359.407 40.4932 359.978 41.3548 360.716 42.0811C361.451 42.801 362.346 43.427 363.396 43.9474C364.446 44.4678 365.614 44.9666 366.907 45.4464C368.563 46.0797 369.796 46.6452 370.607 47.1442C371.417 47.6481 371.822 48.2335 371.822 48.9001C371.822 49.7559 371.51 50.3295 370.884 50.6266C370.258 50.9245 369.187 51.073 367.678 51.073C366.242 51.073 364.785 50.9154 363.312 50.601C361.839 50.2862 360.401 49.8451 359.001 49.2915L357.621 56.0281C358.285 56.3253 359.473 56.6967 361.184 57.1412C362.898 57.5869 365.045 57.8105 367.623 57.8105C371.565 57.8105 374.614 57.0715 376.77 55.5871C378.924 54.1067 380.003 51.9247 380.003 49.0322C380.003 47.8085 379.862 46.7348 379.587 45.8113Z" fill="#6DC9EB"/>
</svg>
